# Blender v2.81 (sub 16) OBJ File: ''
# www.blender.org
mtllib virus.mtl
o Cube
v 1.000000 1.000000 -1.000000
v 1.000000 -1.000000 -1.000000
v 1.000000 1.000000 1.000000
v 1.000000 -1.000000 1.000000
v -1.000000 1.000000 -1.000000
v -1.000000 -1.000000 -1.000000
v -1.000000 1.000000 1.000000
v -1.000000 -1.000000 1.000000
v 0.500000 -1.000000 -1.000000
v -0.500000 -1.000000 -1.000000
v 0.500000 1.000000 1.000000
v -0.500000 1.000000 1.000000
v -0.500000 -1.000000 1.000000
v 0.500000 -1.000000 1.000000
v -0.500000 1.000000 -1.000000
v 0.500000 1.000000 -1.000000
v -1.000000 -1.000000 -0.500000
v -1.000000 -1.000000 0.500000
v 1.000000 1.000000 -0.500000
v 1.000000 1.000000 0.500000
v -1.000000 1.000000 0.500000
v -1.000000 1.000000 -0.500000
v 1.000000 -1.000000 0.500000
v 1.000000 -1.000000 -0.500000
v -0.500000 -1.000000 -0.500000
v -0.500000 -1.000000 0.500000
v 0.500000 -1.000000 -0.500000
v 0.500000 -1.000000 0.500000
v 0.500000 1.000000 -0.500000
v 0.500000 1.000000 0.500000
v -0.500000 1.000000 -0.500000
v -0.500000 1.000000 0.500000
v 1.000000 0.500000 -1.000000
v 1.000000 -0.500000 -1.000000
v -1.000000 -0.500000 1.000000
v -1.000000 0.500000 1.000000
v 1.000000 0.500000 1.000000
v 1.000000 -0.500000 1.000000
v -1.000000 0.500000 -1.000000
v -1.000000 -0.500000 -1.000000
v -0.500000 0.500000 -1.000000
v -0.500000 -0.500000 -1.000000
v 0.500000 0.500000 -1.000000
v 0.500000 -0.500000 -1.000000
v 0.500000 0.500000 1.000000
v 0.500000 -0.500000 1.000000
v -0.500000 0.500000 1.000000
v -0.500000 -0.500000 1.000000
v 1.000000 0.500000 -0.500000
v 1.000000 -0.500000 -0.500000
v 1.000000 0.500000 0.500000
v 1.000000 -0.500000 0.500000
v -1.000000 0.500000 0.500000
v -1.000000 -0.500000 0.500000
v -1.000000 0.500000 -0.500000
v -1.000000 -0.500000 -0.500000
v 0.500000 1.300000 -0.500000
v 0.500000 1.300000 0.500000
v -0.500000 1.300000 -0.500000
v -0.500000 1.300000 0.500000
v 1.300000 0.500000 -0.500000
v 1.300000 -0.500000 -0.500000
v 1.300000 0.500000 0.500000
v 1.300000 -0.500000 0.500000
v -1.300000 0.500000 0.500000
v -1.300000 -0.500000 0.500000
v -1.300000 0.500000 -0.500000
v -1.300000 -0.500000 -0.500000
v 1.000000 -0.217557 -1.000000
v -1.000000 -0.217557 1.000000
v 1.000000 -0.217557 1.000000
v -1.000000 -0.217557 -1.000000
v -0.500000 -0.217557 -1.000000
v 0.500000 -0.217557 -1.000000
v 0.500000 -0.217557 1.000000
v -0.500000 -0.217557 1.000000
v 1.000000 -0.217557 -0.500000
v 1.000000 -0.217557 0.500000
v -1.000000 -0.217557 0.500000
v -1.000000 -0.217557 -0.500000
v 1.300000 -0.217557 -0.500000
v 1.300000 -0.217557 0.500000
v -1.300000 -0.217557 0.500000
v -1.300000 -0.217557 -0.500000
v 0.500000 -0.217557 0.787311
v 0.500000 -0.500000 0.787311
v -0.500000 -0.217557 0.787311
v -0.500000 -0.500000 0.787311
v 0.250000 -1.000000 -1.000000
v -0.250000 -1.000000 -1.000000
v 0.250000 1.000000 1.000000
v -0.250000 1.000000 1.000000
v -0.250000 -1.000000 1.000000
v 0.250000 -1.000000 1.000000
v -0.250000 1.000000 -1.000000
v 0.250000 1.000000 -1.000000
v -0.250000 1.000000 -0.500000
v 0.250000 1.000000 -0.500000
v -0.250000 1.000000 0.500000
v 0.250000 1.000000 0.500000
v 0.250000 -1.000000 -0.500000
v -0.250000 -1.000000 -0.500000
v 0.250000 -1.000000 0.500000
v -0.250000 -1.000000 0.500000
v 0.250000 -0.500000 1.000000
v -0.250000 -0.500000 1.000000
v 0.250000 0.500000 1.000000
v -0.250000 0.500000 1.000000
v -0.250000 -0.500000 -1.000000
v 0.250000 -0.500000 -1.000000
v -0.250000 0.500000 -1.000000
v 0.250000 0.500000 -1.000000
v -0.250000 1.300000 -0.500000
v 0.250000 1.300000 -0.500000
v -0.250000 1.300000 0.500000
v 0.250000 1.300000 0.500000
v -0.250000 -0.217557 -1.000000
v 0.250000 -0.217557 -1.000000
v 0.250000 -0.217557 1.000000
v -0.250000 -0.217557 1.000000
v 0.250000 -0.500000 0.787311
v -0.250000 -0.500000 0.787311
v 0.250000 -0.217557 0.787311
v -0.250000 -0.217557 0.787311
v -0.750000 -1.000000 -1.000000
v -0.750000 1.000000 1.000000
v -0.750000 -1.000000 1.000000
v -0.750000 1.000000 -1.000000
v -0.750000 -1.000000 -0.500000
v -0.750000 -1.000000 0.500000
v -0.750000 1.000000 -0.500000
v -0.750000 1.000000 0.500000
v -0.750000 -0.500000 -1.000000
v -0.750000 0.500000 -1.000000
v -0.750000 -0.500000 1.000000
v -0.750000 0.500000 1.000000
v -0.750000 -0.217557 1.000000
v -0.750000 -0.217557 -1.000000
v 0.750000 -1.000000 1.000000
v 0.750000 1.000000 -1.000000
v 0.750000 -1.000000 -1.000000
v 0.750000 1.000000 1.000000
v 0.750000 1.000000 -0.500000
v 0.750000 1.000000 0.500000
v 0.750000 -1.000000 -0.500000
v 0.750000 -1.000000 0.500000
v 0.750000 -0.500000 1.000000
v 0.750000 0.500000 1.000000
v 0.750000 -0.500000 -1.000000
v 0.750000 0.500000 -1.000000
v 0.750000 -0.217557 -1.000000
v 0.750000 -0.217557 1.000000
v -1.000000 0.225191 1.000000
v 1.000000 0.225191 -1.000000
v 1.000000 0.225191 1.000000
v -1.000000 0.225191 -1.000000
v -0.500000 0.225191 -1.000000
v 0.500000 0.225191 -1.000000
v 0.500000 0.225191 1.000000
v -0.500000 0.225191 1.000000
v 1.000000 0.225191 -0.500000
v 1.000000 0.225191 0.500000
v -1.000000 0.225191 0.500000
v -1.000000 0.225191 -0.500000
v 1.300000 0.225191 -0.500000
v 1.300000 0.225191 0.500000
v -1.300000 0.225191 0.500000
v -1.300000 0.225191 -0.500000
v -0.250000 0.225191 -1.000000
v 0.250000 0.225191 -1.000000
v 0.250000 0.225191 1.000000
v -0.250000 0.225191 1.000000
v -0.750000 0.225191 1.000000
v -0.750000 0.225191 -1.000000
v 0.750000 0.225191 -1.000000
v 0.750000 0.225191 1.000000
v -0.250000 0.500000 0.798705
v -0.500000 0.500000 0.798705
v 0.750000 0.500000 0.798705
v 0.500000 0.500000 0.798705
v 0.250000 0.500000 0.798705
v -0.750000 0.500000 0.798705
v 0.500000 0.225191 0.798705
v -0.500000 0.225191 0.798705
v 0.250000 0.225191 0.798705
v -0.250000 0.225191 0.798705
v -0.750000 0.225191 0.798705
v 0.750000 0.225191 0.798705
vt 0.488937 0.485576
vt 0.486748 0.481211
vt 0.494225 0.476962
vt 0.498778 0.480671
vt 0.510191 0.463588
vt 0.497823 0.462148
vt 0.468291 0.485109
vt 0.473147 0.489411
vt 0.469530 0.492421
vt 0.465718 0.491058
vt 0.420504 0.534142
vt 0.428806 0.539486
vt 0.422787 0.555288
vt 0.408121 0.556416
vt 0.481225 0.532609
vt 0.487309 0.521842
vt 0.495754 0.525272
vt 0.496743 0.541135
vt 0.465450 0.509351
vt 0.470008 0.508941
vt 0.469695 0.511026
vt 0.465896 0.511826
vt 0.465262 0.493759
vt 0.469799 0.494201
vt 0.470024 0.496298
vt 0.465059 0.496278
vt 0.465076 0.504152
vt 0.470243 0.504000
vt 0.470223 0.506497
vt 0.465211 0.506770
vt 0.418444 0.470372
vt 0.411045 0.478745
vt 0.382048 0.455044
vt 0.401865 0.447135
vt 0.406910 0.516325
vt 0.412689 0.526472
vt 0.387990 0.551272
vt 0.369535 0.534266
vt 0.510053 0.539501
vt 0.499473 0.522044
vt 0.503295 0.517044
vt 0.519666 0.530197
vt 0.532030 0.482334
vt 0.506511 0.493330
vt 0.502848 0.486136
vt 0.518517 0.473111
vt 0.489652 0.517030
vt 0.491103 0.512553
vt 0.493731 0.496525
vt 0.490590 0.490145
vt 0.470153 0.498828
vt 0.475902 0.495299
vt 0.475649 0.498514
vt 0.468371 0.518111
vt 0.472649 0.531680
vt 0.467408 0.522057
vt 0.476114 0.507653
vt 0.475039 0.510663
vt 0.447513 0.504936
vt 0.448045 0.508114
vt 0.440773 0.510664
vt 0.439421 0.506189
vt 0.448817 0.492308
vt 0.448030 0.495167
vt 0.440913 0.492786
vt 0.442968 0.488978
vt 0.473604 0.513365
vt 0.448823 0.510855
vt 0.449648 0.512954
vt 0.446070 0.517971
vt 0.442897 0.514540
vt 0.480701 0.470478
vt 0.474768 0.492420
vt 0.427270 0.464160
vt 0.446236 0.456423
vt 0.453433 0.482260
vt 0.445620 0.485946
vt 0.478870 0.505500
vt 0.486966 0.507605
vt 0.416862 0.446985
vt 0.443486 0.420361
vt 0.494213 0.448122
vt 0.475829 0.463032
vt 0.453482 0.521033
vt 0.447739 0.546364
vt 0.466893 0.481406
vt 0.473112 0.472240
vt 0.454331 0.513483
vt 0.462927 0.512497
vt 0.464364 0.518688
vt 0.364213 0.476089
vt 0.193328 0.350442
vt 0.326172 0.260143
vt 0.538284 0.560340
vt 0.514581 0.561621
vt 0.521589 0.548136
vt 0.529706 0.546193
vt 0.424729 0.620700
vt 0.322841 0.776812
vt 0.512190 0.443177
vt 0.522023 0.454459
vt 0.518612 0.461136
vt 0.453826 0.504546
vt 0.454010 0.507497
vt 0.462126 0.504259
vt 0.462277 0.506987
vt 0.454084 0.492791
vt 0.453902 0.495677
vt 0.462356 0.493383
vt 0.462142 0.496108
vt 0.454209 0.510378
vt 0.462531 0.509720
vt 0.441863 0.582278
vt 0.475335 0.541468
vt 0.493643 0.555486
vt 0.454163 0.489980
vt 0.449732 0.489930
vt 0.463878 0.484634
vt 0.462719 0.490553
vt 0.422630 0.381282
vt 0.478690 0.498982
vt 0.479035 0.497061
vt 0.487259 0.495852
vt 0.488320 0.498821
vt 0.470343 0.468729
vt 0.464076 0.480653
vt 0.464725 0.522347
vt 0.468872 0.535033
vt 0.493365 0.506967
vt 0.488236 0.505203
vt 0.460875 0.547915
vt 0.455628 0.536761
vt 0.460557 0.538024
vt 0.458021 0.483336
vt 0.456472 0.478576
vt 0.459237 0.479614
vt 0.456573 0.465613
vt 0.456827 0.524120
vt 0.462368 0.454701
vt 0.462406 0.465200
vt 0.458439 0.519601
vt 0.459925 0.523473
vt 0.485748 0.380600
vt 0.470324 0.420142
vt 0.457541 0.490040
vt 0.469176 0.582939
vt 0.457499 0.510210
vt 0.457746 0.513223
vt 0.457344 0.492969
vt 0.457176 0.495838
vt 0.457143 0.504436
vt 0.457295 0.507311
vt 0.487681 0.623134
vt 0.573270 0.747971
vt 0.185303 0.670534
vt 0.250956 0.990147
vt 0.000128 0.789000
vt 0.958441 0.094253
vt 0.958441 0.141061
vt 0.917010 0.141061
vt 0.917010 0.094254
vt 0.580218 0.219978
vt 0.249367 0.030435
vt 0.645745 0.000128
vt 0.647294 0.984100
vt 0.727162 0.324857
vt 0.916755 0.196336
vt 0.721241 0.654287
vt 0.916755 0.771909
vt 0.917010 0.093998
vt 0.917010 0.047191
vt 0.958441 0.047191
vt 0.958441 0.093998
vt 0.999872 0.000128
vt 0.999872 0.046935
vt 0.917010 0.046935
vt 0.917010 0.000128
vt 0.005242 0.242032
vt 0.457076 0.498704
vt 0.453766 0.498638
vt 0.475539 0.504073
vt 0.478770 0.503303
vt 0.464997 0.498874
vt 0.462048 0.498828
vt 0.447508 0.498386
vt 0.519017 0.540640
vt 0.561441 0.533030
vt 0.532106 0.520725
vt 0.560450 0.462387
vt 0.439591 0.497181
vt 0.405898 0.489425
vt 0.506634 0.510144
vt 0.523529 0.466618
vt 0.538101 0.443956
vt 0.917010 0.274343
vt 0.917010 0.228801
vt 0.958441 0.228801
vt 0.958441 0.274343
vt 0.917010 0.186859
vt 0.917010 0.141316
vt 0.958441 0.141316
vt 0.958441 0.186859
vt 0.962553 0.316029
vt 0.917010 0.316029
vt 0.917010 0.274598
vt 0.962553 0.274598
vt 0.962553 0.228545
vt 0.917010 0.228545
vt 0.917010 0.187114
vt 0.962553 0.187114
vt 0.528805 0.459346
vt 0.529324 0.470522
vt 0.535219 0.464439
vt 0.536983 0.539484
vt 0.531811 0.533885
vt 0.525128 0.537224
vn 0.0000 1.0000 0.0000
vn 0.0000 0.0000 1.0000
vn -1.0000 0.0000 0.0000
vn 0.0000 -1.0000 0.0000
vn 1.0000 0.0000 0.0000
vn 0.0000 0.0000 -1.0000
usemtl Material
s off
f 132/1/1 21/2/1 7/3/1 126/4/1
f 136/5/2 126/4/2 7/3/2 36/6/2
f 55/7/3 22/8/3 5/9/3 39/10/3
f 146/11/4 23/12/4 4/13/4 139/14/4
f 51/15/5 20/16/5 3/17/5 37/18/5
f 150/19/6 140/20/6 1/21/6 33/22/6
f 134/23/6 128/24/6 15/25/6 41/26/6
f 112/27/6 96/28/6 16/29/6 43/30/6
f 130/31/4 26/32/4 13/33/4 127/34/4
f 103/35/4 28/36/4 14/37/4 94/38/4
f 148/39/2 142/40/2 11/41/2 45/42/2
f 108/43/2 92/44/2 12/45/2 47/46/2
f 144/47/1 30/48/1 11/41/1 142/40/1
f 99/49/1 32/50/1 12/45/1 92/44/1
f 95/51/1 15/25/1 31/52/1 97/53/1
f 49/54/1 51/15/1 63/55/1 61/56/1
f 140/20/1 16/29/1 29/57/1 143/58/1
f 143/58/1 29/57/1 30/48/1 144/47/1
f 89/59/4 9/60/4 27/61/4 101/62/4
f 101/62/4 27/61/4 28/36/4 103/35/4
f 125/63/4 10/64/4 25/65/4 129/66/4
f 129/66/4 25/65/4 26/32/4 130/31/4
f 33/22/5 1/21/5 19/67/5 49/54/5
f 49/54/5 19/67/5 20/16/5 51/15/5
f 141/68/4 2/69/4 24/70/4 145/71/4
f 145/71/4 24/70/4 23/12/4 146/11/4
f 36/6/3 7/3/3 21/2/3 53/72/3
f 53/72/3 21/2/3 22/8/3 55/7/3
f 128/24/1 5/9/1 22/8/1 131/73/1
f 131/73/1 22/8/1 21/2/1 132/1/1
f 18/74/3 54/75/3 56/76/3 17/77/3
f 30/48/5 29/57/5 57/78/5 58/79/5
f 8/80/3 35/81/3 54/75/3 18/74/3
f 153/82/3 36/6/3 53/72/3 163/83/3
f 24/70/5 50/84/5 52/85/5 23/12/5
f 53/72/1 55/7/1 67/86/1 65/87/1
f 2/69/5 34/88/5 50/84/5 24/70/5
f 154/89/5 33/22/5 49/54/5 161/90/5
f 93/91/2 106/92/2 48/93/2 13/33/2
f 159/94/1 176/95/1 188/96/1 183/97/1
f 139/14/2 147/98/2 46/99/2 14/37/2
f 136/5/5 173/100/5 187/101/5 182/102/5
f 89/59/6 110/103/6 44/104/6 9/60/6
f 170/105/6 112/27/6 43/30/6 158/106/6
f 125/63/6 133/107/6 42/108/6 10/64/6
f 174/109/6 134/23/6 41/26/6 157/110/6
f 141/68/6 149/111/6 34/88/6 2/69/6
f 175/112/6 150/19/6 33/22/6 154/89/6
f 23/12/5 52/85/5 38/113/5 4/13/5
f 162/114/5 51/15/5 37/18/5 155/115/5
f 17/77/3 56/76/3 40/116/3 6/117/3
f 164/118/3 55/7/3 39/10/3 156/119/3
f 127/34/2 135/120/2 35/81/2 8/80/2
f 173/100/2 136/5/2 36/6/2 153/82/2
f 113/121/1 59/122/1 60/123/1 115/124/1
f 167/125/3 65/87/3 67/86/3 168/126/3
f 165/127/5 61/56/5 63/55/5 166/128/5
f 100/129/2 30/48/2 58/79/2 116/130/2
f 78/131/2 52/85/2 64/132/2 82/133/2
f 80/134/6 56/76/6 68/135/6 84/136/6
f 161/90/6 49/54/6 61/56/6 165/127/6
f 31/52/3 32/50/3 60/123/3 59/122/3
f 56/76/4 54/75/4 66/137/4 68/135/4
f 163/83/2 53/72/2 65/87/2 167/125/2
f 52/85/4 50/84/4 62/138/4 64/132/4
f 97/53/6 31/52/6 59/122/6 113/121/6
f 54/75/2 79/139/2 83/140/2 66/137/2
f 50/84/6 77/141/6 81/142/6 62/138/6
f 164/118/6 80/134/6 84/136/6 168/126/6
f 162/114/2 78/131/2 82/133/2 166/128/2
f 62/138/5 81/142/5 82/133/5 64/132/5
f 66/137/3 83/140/3 84/136/3 68/135/3
f 135/120/2 137/143/2 70/144/2 35/81/2
f 56/76/3 80/134/3 72/145/3 40/116/3
f 52/85/5 78/131/5 71/146/5 38/113/5
f 149/111/6 151/147/6 69/148/6 34/88/6
f 133/107/6 138/149/6 73/150/6 42/108/6
f 110/103/6 118/151/6 74/152/6 44/104/6
f 147/98/2 152/153/2 75/154/2 46/99/2
f 105/155/1 46/99/1 86/156/1 121/157/1
f 34/88/5 69/148/5 77/141/5 50/84/5
f 35/81/3 70/144/3 79/139/3 54/75/3
f 122/158/2 124/159/2 87/160/2 88/161/2
f 76/162/5 48/93/5 88/163/5 87/164/5
f 46/99/3 75/154/3 85/165/3 86/156/3
f 120/166/4 76/162/4 87/164/4 124/167/4
f 75/154/4 119/168/4 123/169/4 85/165/4
f 119/168/4 120/166/4 124/167/4 123/169/4
f 86/170/2 85/171/2 123/172/2 121/173/2
f 121/174/2 123/175/2 124/176/2 122/177/2
f 48/93/1 106/92/1 122/178/1 88/163/1
f 106/92/1 105/155/1 121/157/1 122/178/1
f 42/108/6 73/150/6 117/179/6 109/180/6
f 109/180/6 117/179/6 118/151/6 110/103/6
f 29/57/6 98/181/6 114/182/6 57/78/6
f 98/181/6 97/53/6 113/121/6 114/182/6
f 32/50/2 99/49/2 115/124/2 60/123/2
f 99/49/2 100/129/2 116/130/2 115/124/2
f 57/78/1 114/182/1 116/130/1 58/79/1
f 114/182/1 113/121/1 115/124/1 116/130/1
f 157/110/6 41/26/6 111/183/6 169/184/6
f 169/184/6 111/183/6 112/27/6 170/105/6
f 10/64/6 42/108/6 109/180/6 90/185/6
f 90/185/6 109/180/6 110/103/6 89/59/6
f 176/95/3 148/39/3 179/186/3 188/96/3
f 171/187/2 107/188/2 108/43/2 172/189/2
f 14/37/2 46/99/2 105/155/2 94/38/2
f 94/38/2 105/155/2 106/92/2 93/91/2
f 25/65/4 102/190/4 104/191/4 26/32/4
f 102/190/4 101/62/4 103/35/4 104/191/4
f 10/64/4 90/185/4 102/190/4 25/65/4
f 90/185/4 89/59/4 101/62/4 102/190/4
f 16/29/1 96/28/1 98/181/1 29/57/1
f 96/28/1 95/51/1 97/53/1 98/181/1
f 30/48/1 100/129/1 91/192/1 11/41/1
f 100/129/1 99/49/1 92/44/1 91/192/1
f 45/42/2 11/41/2 91/192/2 107/188/2
f 107/188/2 91/192/2 92/44/2 108/43/2
f 26/32/4 104/191/4 93/91/4 13/33/4
f 104/191/4 103/35/4 94/38/4 93/91/4
f 41/26/6 15/25/6 95/51/6 111/183/6
f 111/183/6 95/51/6 96/28/6 112/27/6
f 40/116/6 72/145/6 138/149/6 133/107/6
f 48/93/2 76/162/2 137/143/2 135/120/2
f 47/46/4 136/5/4 182/102/4 178/193/4
f 13/33/2 48/93/2 135/120/2 127/34/2
f 156/119/6 39/10/6 134/23/6 174/109/6
f 6/117/6 40/116/6 133/107/6 125/63/6
f 31/52/1 131/73/1 132/1/1 32/50/1
f 15/25/1 128/24/1 131/73/1 31/52/1
f 17/77/4 129/66/4 130/31/4 18/74/4
f 6/117/4 125/63/4 129/66/4 17/77/4
f 18/74/4 130/31/4 127/34/4 8/80/4
f 39/10/6 5/9/6 128/24/6 134/23/6
f 47/46/2 12/45/2 126/4/2 136/5/2
f 32/50/1 132/1/1 126/4/1 12/45/1
f 38/113/2 71/146/2 152/153/2 147/98/2
f 44/104/6 74/152/6 151/147/6 149/111/6
f 158/106/6 43/30/6 150/19/6 175/112/6
f 9/60/6 44/104/6 149/111/6 141/68/6
f 155/115/2 37/18/2 148/39/2 176/95/2
f 4/13/2 38/113/2 147/98/2 139/14/2
f 27/61/4 145/71/4 146/11/4 28/36/4
f 9/60/4 141/68/4 145/71/4 27/61/4
f 19/67/1 143/58/1 144/47/1 20/16/1
f 1/21/1 140/20/1 143/58/1 19/67/1
f 20/16/1 144/47/1 142/40/1 3/17/1
f 37/18/2 3/17/2 142/40/2 148/39/2
f 43/30/6 16/29/6 140/20/6 150/19/6
f 28/36/4 146/11/4 139/14/4 14/37/4
f 71/146/2 155/115/2 176/95/2 152/153/2
f 74/152/6 158/106/6 175/112/6 151/147/6
f 72/145/6 156/119/6 174/109/6 138/149/6
f 76/162/2 160/194/2 173/100/2 137/143/2
f 119/168/2 171/187/2 172/189/2 120/166/2
f 75/154/2 159/94/2 171/187/2 119/168/2
f 117/179/6 169/184/6 170/105/6 118/151/6
f 73/150/6 157/110/6 169/184/6 117/179/6
f 51/15/2 162/114/2 166/128/2 63/55/2
f 55/7/6 164/118/6 168/126/6 67/86/6
f 79/139/2 163/83/2 167/125/2 83/140/2
f 77/141/6 161/90/6 165/127/6 81/142/6
f 81/142/5 165/127/5 166/128/5 82/133/5
f 83/140/3 167/125/3 168/126/3 84/136/3
f 137/143/2 173/100/2 153/82/2 70/144/2
f 80/134/3 164/118/3 156/119/3 72/145/3
f 78/131/5 162/114/5 155/115/5 71/146/5
f 151/147/6 175/112/6 154/89/6 69/148/6
f 138/149/6 174/109/6 157/110/6 73/150/6
f 118/151/6 170/105/6 158/106/6 74/152/6
f 152/153/2 176/95/2 159/94/2 75/154/2
f 120/166/2 172/189/2 160/194/2 76/162/2
f 69/148/5 154/89/5 161/90/5 77/141/5
f 70/144/3 153/82/3 163/83/3 79/139/3
f 186/195/2 177/196/2 178/197/2 184/198/2
f 188/199/2 179/200/2 180/201/2 183/202/2
f 183/203/2 180/204/2 181/205/2 185/206/2
f 184/207/2 178/208/2 182/209/2 187/210/2
f 173/100/1 160/194/1 184/211/1 187/101/1
f 108/43/4 47/46/4 178/193/4 177/212/4
f 160/194/1 172/189/1 186/213/1 184/211/1
f 107/188/5 171/187/5 185/214/5 181/215/5
f 171/187/1 159/94/1 183/97/1 185/214/1
f 172/189/3 108/43/3 177/212/3 186/213/3
f 45/42/4 107/188/4 181/215/4 180/216/4
f 148/39/4 45/42/4 180/216/4 179/186/4
